<svg id="Layer_1" data-name="Layer 1" xmlns="http://www.w3.org/2000/svg" viewBox="0 0 250 250"><defs><style>.cls-1{fill:#bc00dd;}.cls-2{fill:#6a00f4;}.cls-3{fill:#f20089;}</style></defs><path class="cls-1" d="M54.31,81.07A18.85,18.85,0,1,1,35.46,99.92,18.87,18.87,0,0,1,54.31,81.07m0-5.72A24.58,24.58,0,1,0,78.88,99.92,24.57,24.57,0,0,0,54.31,75.35Z"/><path class="cls-1" d="M200.06,81.41a18.85,18.85,0,1,1-18.85,18.85,18.87,18.87,0,0,1,18.85-18.85m0-5.72a24.57,24.57,0,1,0,24.58,24.57,24.57,24.57,0,0,0-24.58-24.57Z"/><path class="cls-1" d="M194,58.59a45.14,45.14,0,0,1,45.15,45.15v42.52A45.14,45.14,0,0,1,194,191.41H56a45.14,45.14,0,0,1-45.15-45.15V103.74A45.14,45.14,0,0,1,56,58.59H194m0-5.05H56a50.2,50.2,0,0,0-50.2,50.2v42.52A50.2,50.2,0,0,0,56,196.46H194a50.2,50.2,0,0,0,50.2-50.2V103.74A50.2,50.2,0,0,0,194,53.54Z"/><path d="M129.43,91.21a2.73,2.73,0,0,1-1.49-.45,2.7,2.7,0,0,1-.75-3.74l.1-.15a2.69,2.69,0,1,1,4.47,3l-.09.13A2.67,2.67,0,0,1,129.43,91.21Z"/><path class="cls-2" d="M106.2,137a2.69,2.69,0,0,1-1.72-4.77l.26-.21.13-.11.13-.11.26-.21.13-.11.13-.11.26-.21.13-.11.13-.11.26-.21.13-.11.13-.11.26-.21.13-.11.13-.11.26-.21.13-.11.13-.11.26-.21.13-.1.13-.12.26-.21.13-.11.13-.11.26-.21.13-.1.13-.12.26-.21.13-.1.13-.12.26-.21.13-.1.13-.12.26-.21.13-.1.13-.12.26-.21.13-.1.13-.12.26-.21.13-.1.13-.12L112,126l.13-.1.13-.12.25-.21.14-.1.13-.12.25-.21.14-.1.13-.12.25-.21.14-.1a.69.69,0,0,1,.13-.11l.25-.22.14-.1a.69.69,0,0,1,.13-.11l.25-.22.14-.1a.69.69,0,0,1,.13-.11l.25-.22.14-.1a.69.69,0,0,1,.13-.11l.25-.22.14-.1a.69.69,0,0,1,.13-.11l.25-.22.14-.1a.69.69,0,0,1,.13-.11l.25-.22.14-.1a.69.69,0,0,1,.13-.11l.25-.22.14-.1.12-.11.26-.22.14-.1L118,121l.26-.22.13-.1.13-.11.24-.2.13-.1.11-.11.24-.2.12-.1.11-.1.23-.21.11-.09.1-.11.21-.2.11-.1.1-.1.19-.2a.47.47,0,0,1,.1-.1.39.39,0,0,1,.08-.1l.18-.2.09-.1a.39.39,0,0,1,.08-.1l.15-.2.08-.1.06-.1c0-.06.09-.13.14-.2l.06-.09a.31.31,0,0,0,0-.1,1.18,1.18,0,0,0,.11-.19l0-.09a.36.36,0,0,0,0-.09l.09-.19,0-.08,0-.09.06-.18,0-.09s0,0,0-.08a1.36,1.36,0,0,0,0-.17s0-.06,0-.09,0-.06,0-.1v0a.49.49,0,0,0,0-.12v-.19a1.09,1.09,0,0,0,0-.18v-.1s0-.07,0-.11l0-.2s0-.08,0-.11a.5.5,0,0,1,0-.12l-.06-.23,0-.12a.65.65,0,0,0,0-.13l-.07-.25a.65.65,0,0,1,0-.13.78.78,0,0,1-.05-.14c0-.09-.06-.18-.1-.27s0-.1,0-.15l-.06-.13-.11-.3-.06-.15-.06-.15-.12-.32-.06-.16L121,112l-.13-.34a1.09,1.09,0,0,1-.05-.17,1.22,1.22,0,0,1-.07-.17c0-.12-.09-.24-.13-.37l-.06-.18-.06-.18-.06-.19-.06-.2a1.46,1.46,0,0,1,0-.2l-.06-.19c0-.13-.07-.26-.1-.39a1.77,1.77,0,0,1,0-.2,1.46,1.46,0,0,1,0-.2c0-.13,0-.26-.08-.39l0-.2c0-.07,0-.14,0-.2l-.06-.4c0-.07,0-.13,0-.2l0-.2c0-.13,0-.27,0-.4s0-.13,0-.2,0-.13,0-.2,0-.27,0-.4V106a1.27,1.27,0,0,1,0-.2v-.4a1.34,1.34,0,0,1,0-.2,1.27,1.27,0,0,1,0-.2c0-.13,0-.26,0-.39a1.36,1.36,0,0,1,0-.2v-.19c0-.13,0-.27,0-.4a1.23,1.23,0,0,1,0-.19,1.36,1.36,0,0,1,0-.2c0-.13,0-.26,0-.38l0-.2,0-.19.06-.38a1.42,1.42,0,0,1,0-.2l0-.19c0-.12.05-.25.07-.37s0-.13,0-.19a1.29,1.29,0,0,1,0-.19c0-.13,0-.25.08-.37l.06-.18a1.06,1.06,0,0,1,0-.19c0-.13.06-.25.1-.37a1.21,1.21,0,0,1,0-.18c0-.06,0-.12,0-.18s.07-.25.11-.37l.06-.17.06-.18c0-.12.07-.24.11-.36l.07-.18.06-.17a3.62,3.62,0,0,1,.13-.35.87.87,0,0,1,.07-.17.64.64,0,0,1,.06-.18c0-.12.09-.23.13-.35s0-.11.08-.16l.06-.18c0-.11.1-.23.14-.34s0-.11.08-.16a1.34,1.34,0,0,1,.07-.18l.15-.33a1.19,1.19,0,0,1,.08-.16,1.22,1.22,0,0,1,.07-.17l.15-.33.09-.16a1.22,1.22,0,0,1,.07-.17l.16-.32c0-.06,0-.11.08-.16l.08-.17.16-.32.09-.15.08-.17.17-.31.09-.15a1.3,1.3,0,0,1,.08-.17l.17-.31.09-.15.09-.16.17-.3.09-.16.09-.15.18-.31.09-.14.09-.16.18-.3.09-.15.09-.15.18-.3a.71.71,0,0,1,.1-.14,1.09,1.09,0,0,1,.08-.15l.19-.3a.71.71,0,0,1,.1-.14,1.19,1.19,0,0,1,.09-.15l.18-.3.1-.14.09-.15.19-.29.1-.14a.6.6,0,0,1,.09-.15l.19-.29.09-.13.09-.15.2-.29a2.69,2.69,0,0,1,4.48,3l-.19.27-.09.14-.09.14-.18.27-.09.14-.09.14-.18.28-.09.13a1,1,0,0,1-.08.14l-.18.27-.09.14-.08.14-.17.27-.09.14-.09.14-.16.27-.09.14s-.05.1-.08.14l-.17.28-.09.14s-.05.09-.07.14l-.17.27a1056255265133.41,1056255265133.41,0,0,1-.16.28l-.16.28a1,1,0,0,1-.08.14.91.91,0,0,1-.07.14l-.16.28s-.05.09-.07.14-.05.09-.08.14l-.15.28c0,.05,0,.09-.07.14s0,.09-.07.14l-.15.28a1966866193404.14,1966866193404.14,0,0,1-.14.28l-.13.28s0,.1-.08.14l-.06.15-.13.28s-.05.09-.07.14l-.06.14-.13.29-.06.14-.06.14-.12.29-.06.13-.06.15c0,.1-.07.19-.11.29l-.06.13a.88.88,0,0,1,0,.15l-.1.28s0,.1-.05.15l0,.14-.09.29a.78.78,0,0,0,0,.14s0,.1,0,.14,0,.2-.08.29,0,.1,0,.14l0,.14c0,.1-.06.2-.08.29s0,.1,0,.14l0,.15a2.86,2.86,0,0,0-.07.28.57.57,0,0,1,0,.14c0,.05,0,.1,0,.15l-.06.29,0,.13s0,.1,0,.15,0,.19,0,.28,0,.09,0,.14,0,.09,0,.14l0,.29s0,.09,0,.14,0,.09,0,.14a2.46,2.46,0,0,0,0,.28s0,.09,0,.14v.14a2.53,2.53,0,0,0,0,.28s0,.09,0,.13v.42a.29.29,0,0,1,0,.13.71.71,0,0,1,0,.14c0,.09,0,.19,0,.28v.13s0,.09,0,.14,0,.18,0,.27,0,.09,0,.14a.69.69,0,0,0,0,.13,2.51,2.51,0,0,0,0,.27s0,.09,0,.13a.59.59,0,0,1,0,.13l.06.27a.59.59,0,0,1,0,.13.65.65,0,0,1,0,.13l.06.26a.93.93,0,0,1,0,.13.5.5,0,0,0,0,.13l.07.25,0,.15,0,.13c0,.09.07.18.1.27l0,.15.06.14.11.3a.88.88,0,0,1,0,.15,1,1,0,0,1,.07.15l.12.32.06.16a1.11,1.11,0,0,0,.07.16l.12.34.06.17a1.34,1.34,0,0,1,.07.18l.13.36a1.21,1.21,0,0,1,0,.18c0,.07,0,.13.07.19l.12.4a1.17,1.17,0,0,1,0,.2l.06.2c0,.14.07.28.1.42a2.07,2.07,0,0,1,0,.22c0,.07,0,.14,0,.22s.05.31.07.46,0,.16,0,.23a1,1,0,0,1,0,.24l0,.49a1.93,1.93,0,0,1,0,.24,2.08,2.08,0,0,1,0,.25c0,.12,0,.25,0,.38v.13a2,2,0,0,1,0,.24,1.13,1.13,0,0,1,0,.25c0,.16-.06.32-.09.48a1.82,1.82,0,0,1-.07.25,2,2,0,0,1,0,.24l-.15.46-.09.23c0,.07-.05.15-.08.23s-.13.29-.2.43a1.24,1.24,0,0,1-.1.2,2.09,2.09,0,0,1-.1.21l-.23.4-.12.19a1.18,1.18,0,0,1-.11.19c-.08.13-.16.25-.25.37a1.83,1.83,0,0,1-.13.16l-.12.18a4.19,4.19,0,0,1-.26.33,1.07,1.07,0,0,1-.14.16l-.12.16-.27.31-.14.14a1,1,0,0,1-.13.15l-.28.29a.86.86,0,0,1-.14.13l-.13.14-.28.27-.14.12a1.85,1.85,0,0,1-.14.14l-.27.24a.79.79,0,0,1-.15.12l-.13.13-.27.24-.15.11-.13.12-.27.23-.14.1-.12.11-.27.22-.13.1-.12.11-.27.22-.13.1-.12.11-.27.22-.13.1-.12.11-.27.22-.13.1-.12.11-.27.22-.13.1-.12.11-.27.22-.13.1-.12.11-.27.22-.13.1-.12.11-.27.22-.13.1-.12.11-.26.22-.14.1-.12.11-.26.22-.14.1-.12.11-.26.22-.14.1-.12.11-.26.22-.14.1-.12.11-.26.22-.14.1-.12.11-.26.22-.13.1-.13.11-.26.22-.14.1-.12.11-.26.22-.13.1-.13.11-.26.22-.13.1-.13.11-.26.22-.13.1-.13.11-.26.22-.13.1-.13.11-.26.22-.13.1-.13.11-.26.22-.13.1-.13.11-.26.22-.13.1-.13.11-.26.22-.13.1-.13.11-.26.21-.13.11-.13.11-.26.21-.13.11-.13.11-.26.21-.13.11-.13.11-.26.21A2.65,2.65,0,0,1,106.2,137Z"/><path class="cls-2" d="M137.16,147.82a2.69,2.69,0,0,1-2.64-2.16c0-.06,0-.13,0-.19l0-.1,0-.1-.06-.19a.36.36,0,0,1,0-.09,1,1,0,0,0,0-.1l-.09-.19a1,1,0,0,1,0-.1l-.06-.09a1.62,1.62,0,0,0-.1-.18l-.06-.1-.06-.09-.13-.18-.06-.1-.08-.09-.14-.17-.08-.09-.08-.09-.17-.17-.09-.09-.09-.08-.18-.16-.09-.08-.1-.08a1.56,1.56,0,0,1-.2-.16l-.11-.08-.1-.07-.21-.14-.11-.07-.12-.07-.22-.13-.11-.07-.12-.06-.23-.12-.12-.07-.13-.05-.24-.11-.12-.06-.13,0-.24-.1-.13-.05-.12,0-.26-.08-.13-.05-.13,0L129,141l-.12,0-.14,0-.26-.06-.13,0-.13,0-.28,0-.15,0h-.14l-.29,0-.14,0h-.15l-.29,0-.15,0h-3.09l-.16,0h-.64l-.33,0h-.33l-.33,0h-.17l-.17,0-.33,0H121l-.17,0-.34,0h-.17l-.17,0-.35,0h-.34l-.36,0h-.17l-.18,0-.35,0H118l-.36,0H115l-.38,0h-.38l-.39,0-.19,0h-.19l-.38,0-.19,0-.19,0-.39-.06-.19,0-.19,0-.39-.07-.19-.05-.19,0-.39-.09-.19-.05-.2,0-.39-.11-.19-.06-.19-.06-.39-.13-.19-.07-.19-.07-.39-.15-.18-.09-.2-.08-.38-.17-.19-.1-.18-.09L107,139l-.18-.11-.18-.1-.37-.23-.18-.13a1.88,1.88,0,0,1-.18-.12l-.35-.26-.17-.14-.18-.13-.33-.29-.16-.15-.17-.15-.32-.31a2.7,2.7,0,0,1,3.89-3.74l.16.16.09.09.08.08.19.15.09.08.09.07.2.15.1.07.1.06.21.13a.41.41,0,0,0,.11.07l.11.06.22.12a.41.41,0,0,1,.11.07l.12.05.23.11.12,0,.12.05.25.1.13.05.12,0,.26.09.13,0,.13,0,.27.08.13,0a.35.35,0,0,1,.14,0l.27.06.14,0,.14,0,.28,0,.14,0,.14,0,.29.05.15,0,.14,0,.29,0,.15,0h.14l.3,0h.6l.15,0h2l.32,0h.32l.33,0h.16l.16,0,.33,0h.33l.33,0h.17l.17,0,.34,0h.17l.17,0,.34,0h.17l.17,0,.32,0h.38l.35,0h.18l.17,0h3.29l.19,0h.19l.38,0,.19,0h.19l.39,0,.19,0H128l.39,0,.19,0,.19,0,.39.07.2,0,.21,0,.4.09.2.05.2,0,.4.11.19.06.2.06.39.12.19.08.2.06.38.15.19.09.19.07.38.17.18.1.19.08.37.19.18.11.18.1.37.21.17.12.18.1.35.24.17.13.17.12.34.26.16.15a1.09,1.09,0,0,1,.17.13l.33.29c.05,0,.11.1.15.15l.17.15.3.31.15.17.15.16.29.35.13.18.14.18.27.38a1.18,1.18,0,0,1,.11.19,2.14,2.14,0,0,1,.13.19l.24.41.1.2.11.21c.07.14.13.28.19.43l.09.22.09.22q.08.21.15.45a5.94,5.94,0,0,0,.13.46c0,.15.08.31.11.46a2.71,2.71,0,0,1-2.11,3.18A3.27,3.27,0,0,1,137.16,147.82Z"/><path d="M54,97.23c-3.72,0-6.74,1.51-6.74,3.37S50.26,104,54,104s6.73-1.51,6.73-3.36-3-3.37-6.73-3.37Z"/><path class="cls-3" d="M54,97.23c-3.72,0-6.74,1.51-6.74,3.37S50.26,104,54,104s6.73-1.51,6.73-3.36-3-3.37-6.73-3.37Z"/><path class="cls-3" d="M197.37,96.56c-3.72,0-6.73,1.5-6.73,3.36s3,3.37,6.73,3.37,6.73-1.51,6.73-3.37-3-3.36-6.73-3.36Z"/></svg>