<?xml version="1.0" encoding="UTF-8"?><svg id="Layer_1" xmlns="http://www.w3.org/2000/svg" viewBox="0 0 494.24 317.42"><defs><style>.cls-1{fill:#fff;}.cls-2{fill:#231f20;}</style></defs><path class="cls-2" d="m399.41,97.77c-20.5,0-37.17-16.68-37.17-37.18s16.67-37.17,37.17-37.17,37.18,16.67,37.18,37.17-16.68,37.18-37.18,37.18Zm0-71.35c-18.84,0-34.17,15.33-34.17,34.17s15.33,34.18,34.17,34.18,34.18-15.33,34.18-34.18-15.33-34.17-34.18-34.17Z"/><path class="cls-1" d="m1.5,24.92v291h491V24.92H1.5Zm397.67,1.18c19.7,0,35.68,15.97,35.68,35.67s-15.98,35.68-35.68,35.68-35.67-15.97-35.67-35.68,15.97-35.67,35.67-35.67Zm-289.02,1.46c19.71,0,35.68,15.97,35.68,35.67,0,18.27-13.74,33.33-31.46,35.42-1.38.17-2.79.25-4.22.25s-2.73-.08-4.07-.23c-17.78-2.02-31.6-17.12-31.6-35.44,0-19.7,15.97-35.67,35.67-35.67Zm328.46,175.42c-45,56.08-114.11,91.99-191.61,91.99s-148.69-37-193.62-94.55c-7.27-9.31-13.88-19.15-19.76-29.47l31.89.21,361.5,2.4,31.74.21c-6.02,10.24-12.76,20-20.14,29.21Z"/><path class="cls-2" d="m494,317.42H0V23.42h494v294Zm-491-3h488V26.42h-80.33c14.89,4.85,25.68,18.87,25.68,35.35,0,20.5-16.68,37.18-37.18,37.18s-37.17-16.68-37.17-37.18c0-16.48,10.79-30.5,25.67-35.35H115.33c18.06,2.53,32,18.07,32,36.81s-14.09,34.71-32.78,36.91c-2.71.33-5.65.36-8.63.02-18.78-2.13-32.93-18.01-32.93-36.93s13.94-34.28,31.99-36.81H3v288ZM110.15,29.06c-18.84,0-34.17,15.33-34.17,34.17,0,17.39,13.01,31.99,30.27,33.95,2.74.31,5.45.29,7.94-.02,17.19-2.03,30.14-16.61,30.14-33.93,0-18.84-15.33-34.17-34.18-34.17Zm289.02-1.46c-18.84,0-34.17,15.33-34.17,34.17s15.33,34.18,34.17,34.18,34.18-15.33,34.18-34.18-15.33-34.17-34.18-34.17Zm-152.17,268.87c-38.7,0-75.75-8.7-110.13-25.85-32.78-16.36-62.06-40.31-84.67-69.28-7.33-9.39-14.02-19.36-19.88-29.65l-1.29-2.26,34.49.23,395.84,2.63-1.32,2.24c-6.01,10.22-12.82,20.1-20.26,29.39h0c-47.2,58.82-117.46,92.55-192.78,92.55ZM36.23,172.47c5.47,9.36,11.63,18.44,18.33,27.03,46.62,59.72,116.77,93.97,192.44,93.97s143.81-33.33,190.44-91.43h0c6.8-8.49,13.08-17.49,18.68-26.79l-419.9-2.78Z"/><path class="cls-2" d="m110.39,99.22c-1.42,0-2.8-.08-4.24-.24-18.78-2.13-32.93-18.01-32.93-36.93,0-20.5,16.67-37.17,37.17-37.17s37.18,16.67,37.18,37.17c0,18.84-14.09,34.71-32.78,36.91-1.4.17-2.88.26-4.4.26Zm0-71.34c-18.84,0-34.17,15.33-34.17,34.17,0,17.39,13.01,31.99,30.27,33.95,2.73.31,5.46.29,7.94-.02,17.19-2.03,30.14-16.61,30.14-33.93,0-18.84-15.33-34.17-34.18-34.17Z"/><path class="cls-2" d="m399.41,97.77c-20.5,0-37.17-16.68-37.17-37.18s16.67-37.17,37.17-37.17,37.18,16.67,37.18,37.17-16.68,37.18-37.18,37.18Zm0-71.35c-18.84,0-34.17,15.33-34.17,34.17s15.33,34.18,34.17,34.18,34.18-15.33,34.18-34.18-15.33-34.17-34.18-34.17Z"/><path class="cls-2" d="m110.39,99.22c-1.42,0-2.8-.08-4.24-.24-18.78-2.13-32.93-18.01-32.93-36.93,0-20.5,16.67-37.17,37.17-37.17s37.18,16.67,37.18,37.17c0,18.84-14.09,34.71-32.78,36.91-1.4.17-2.88.26-4.4.26Zm0-71.34c-18.84,0-34.17,15.33-34.17,34.17,0,17.39,13.01,31.99,30.27,33.95,2.73.31,5.46.29,7.94-.02,17.19-2.03,30.14-16.61,30.14-33.93,0-18.84-15.33-34.17-34.18-34.17Z"/><path class="cls-2" d="m494.24,25.24H.24V0h494v25.24ZM3.24,22.24h488V3H3.24v19.24Z"/><rect class="cls-2" x="106.32" y="95.98" width="8.29" height="3" transform="translate(-.22 .25) rotate(-.13)"/><path class="cls-2" d="m110.39,99.22c-1.42,0-2.8-.08-4.24-.24-18.78-2.13-32.93-18.01-32.93-36.93,0-20.5,16.67-37.17,37.17-37.17s37.18,16.67,37.18,37.17c0,18.84-14.09,34.71-32.78,36.91-1.4.17-2.88.26-4.4.26Zm0-71.34c-18.84,0-34.17,15.33-34.17,34.17,0,17.39,13.01,31.99,30.27,33.95,2.73.31,5.46.29,7.94-.02,17.19-2.03,30.14-16.61,30.14-33.93,0-18.84-15.33-34.17-34.18-34.17Z"/><path class="cls-2" d="m399.41,97.77c-20.5,0-37.17-16.68-37.17-37.18s16.67-37.17,37.17-37.17,37.18,16.67,37.18,37.17-16.68,37.18-37.18,37.18Zm0-71.35c-18.84,0-34.17,15.33-34.17,34.17s15.33,34.18,34.17,34.18,34.18-15.33,34.18-34.18-15.33-34.17-34.18-34.17Z"/><path class="cls-2" d="m399.41,97.77c-20.5,0-37.17-16.68-37.17-37.18s16.67-37.17,37.17-37.17,37.18,16.67,37.18,37.17-16.68,37.18-37.18,37.18Zm0-71.35c-18.84,0-34.17,15.33-34.17,34.17s15.33,34.18,34.17,34.18,34.18-15.33,34.18-34.18-15.33-34.17-34.18-34.17Z"/><path class="cls-2" d="m110.39,99.22c-1.42,0-2.8-.08-4.24-.24-18.78-2.13-32.93-18.01-32.93-36.93,0-20.5,16.67-37.17,37.17-37.17s37.18,16.67,37.18,37.17c0,18.84-14.09,34.71-32.78,36.91-1.4.17-2.88.26-4.4.26Zm0-71.34c-18.84,0-34.17,15.33-34.17,34.17,0,17.39,13.01,31.99,30.27,33.95,2.73.31,5.46.29,7.94-.02,17.19-2.03,30.14-16.61,30.14-33.93,0-18.84-15.33-34.17-34.18-34.17Z"/><path d="m435.09,60.59c0,19.71-15.98,35.68-35.68,35.68s-35.67-15.97-35.67-35.68,15.97-35.67,35.67-35.67,35.68,15.97,35.68,35.67Z"/><path class="cls-2" d="m399.41,97.77c-20.5,0-37.17-16.68-37.17-37.18s16.67-37.17,37.17-37.17,37.18,16.67,37.18,37.17-16.68,37.18-37.18,37.18Zm0-71.35c-18.84,0-34.17,15.33-34.17,34.17s15.33,34.18,34.17,34.18,34.18-15.33,34.18-34.18-15.33-34.17-34.18-34.17Z"/><path d="m146.07,62.05c0,18.27-13.74,33.33-31.46,35.42-1.38.17-2.79.25-4.22.25s-2.73-.08-4.07-.23c-17.78-2.02-31.6-17.12-31.6-35.44,0-19.7,15.97-35.67,35.67-35.67s35.68,15.97,35.68,35.67Z"/><path class="cls-2" d="m110.39,99.22c-1.42,0-2.8-.08-4.24-.24-18.78-2.13-32.93-18.01-32.93-36.93,0-20.5,16.67-37.17,37.17-37.17s37.18,16.67,37.18,37.17c0,18.84-14.09,34.71-32.78,36.91-1.4.17-2.88.26-4.4.26Zm0-71.34c-18.84,0-34.17,15.33-34.17,34.17,0,17.39,13.01,31.99,30.27,33.95,2.73.31,5.46.29,7.94-.02,17.19-2.03,30.14-16.61,30.14-33.93,0-18.84-15.33-34.17-34.18-34.17Z"/><rect class="cls-1" x="1.74" y="1.5" width="490.52" height="20.84"/><path class="cls-2" d="m493.76,23.84H.24V0h493.52v23.84ZM3.24,20.84h487.52V3H3.24v17.84Z"/><path class="cls-2" d="m458.75,173.7c-50.5,74.12-126.49,121.27-211.46,121.27s-163.18-48.55-213.67-124.55l425.13,3.28Z"/><path class="cls-2" d="m247.29,296.47c-83.72,0-162.06-45.64-214.92-125.22l-1.56-2.35,430.76,3.32-1.58,2.32c-52.8,77.49-130.32,121.92-212.7,121.92ZM36.45,171.94c52.27,77.27,128.98,121.53,210.85,121.53s156.43-43.07,208.62-118.29l-419.47-3.24Z"/></svg>